<?xml version="1.0" standalone="no"?>
<!DOCTYPE svg PUBLIC "-//W3C//DTD SVG 20010904//EN"
 "http://www.w3.org/TR/2001/REC-SVG-20010904/DTD/svg10.dtd">
<svg version="1.0" xmlns="http://www.w3.org/2000/svg"
 width="16.000000pt" height="16.000000pt" viewBox="0 0 16.000000 16.000000"
 preserveAspectRatio="xMidYMid meet">
<metadata>
Created by potrace 1.11, written by Peter Selinger 2001-2013
</metadata>
<g transform="translate(0.000000,16.000000) scale(0.002286,-0.002286)"
fill="#000000" stroke="none">
<path d="M2595 6993 c-42 -11 -93 -52 -114 -91 -10 -18 -77 -287 -205 -812
-19 -80 -63 -257 -96 -395 -34 -137 -63 -258 -65 -268 -2 -10 -7 -27 -10 -37
-3 -10 -8 -27 -10 -37 -8 -43 -26 -116 -60 -253 -15 -58 -29 -116 -31 -130 -3
-14 -17 -70 -30 -125 -14 -55 -27 -107 -29 -115 -11 -51 -97 -405 -110 -450
-8 -30 -24 -93 -35 -140 -10 -47 -47 -197 -80 -335 -34 -137 -63 -258 -65
-268 -2 -9 -6 -21 -9 -25 -2 -4 -7 -25 -11 -47 -3 -22 -9 -56 -14 -75 -11 -52
7 -108 49 -150 63 -63 124 -67 315 -18 66 16 147 36 180 44 33 8 132 32 220
54 88 22 167 42 175 44 84 22 759 188 770 191 8 2 62 15 119 30 57 14 105 24
107 22 3 -2 -10 -62 -27 -133 -17 -71 -32 -133 -34 -139 -1 -5 -5 -21 -8 -35
-4 -14 -38 -155 -77 -315 -61 -253 -76 -312 -95 -385 -2 -8 -13 -53 -24 -100
-29 -122 -111 -460 -192 -790 -39 -157 -72 -294 -75 -305 -4 -22 -3 -18 -99
-410 -37 -148 -68 -277 -70 -285 -2 -8 -31 -126 -64 -263 -34 -136 -61 -259
-61 -273 0 -34 26 -94 53 -119 33 -31 62 -43 118 -50 71 -9 148 28 184 89 20
35 149 304 227 476 11 25 42 90 68 145 26 55 58 123 70 150 12 28 51 110 86
184 35 73 64 135 64 136 0 3 81 175 138 295 15 30 27 57 27 60 1 3 16 37 34
75 35 72 91 193 141 300 15 33 55 118 89 189 33 70 61 129 61 131 0 3 42 92
137 294 19 40 48 101 63 135 28 62 98 210 153 326 17 36 31 67 32 70 0 3 16
37 34 75 33 68 66 141 129 275 47 103 100 215 168 359 35 73 64 135 64 137 0
2 20 45 44 96 24 51 60 128 80 171 89 191 111 238 162 345 30 63 54 116 54
117 0 2 26 59 59 126 99 210 104 223 108 274 5 63 -18 109 -76 150 -61 43
-113 39 -361 -23 -448 -112 -603 -150 -635 -157 -20 -4 -521 -128 -575 -142
-14 -3 -29 -7 -35 -9 -5 -1 -54 -13 -107 -27 -53 -13 -99 -23 -101 -20 -3 2 6
32 18 66 13 34 69 186 124 337 56 151 106 284 111 295 8 20 160 431 225 610
79 218 218 593 231 622 44 98 19 179 -76 242 -22 14 -98 16 -765 17 -407 1
-749 0 -760 -3z"/>
</g>
</svg>
