<svg aria-hidden="true" style="position: absolute; width: 0; height: 0; overflow: hidden;" version="1.1" xmlns="http://www.w3.org/2000/svg" xmlns:xlink="http://www.w3.org/1999/xlink">
<defs>
<symbol id="icon-clock-outline" viewBox="0 0 32 32">
<title>clock-outline</title>
<path d="M16 0.213c2.861 0 5.509 0.715 7.944 2.146s4.367 3.363 5.798 5.798c1.431 2.434 2.146 5.082 2.146 7.944s-0.715 5.509-2.146 7.944c-1.431 2.434-3.363 4.367-5.798 5.798s-5.082 2.146-7.944 2.146-5.509-0.715-7.944-2.146c-2.434-1.431-4.367-3.363-5.798-5.798s-2.146-5.082-2.146-7.944c0-2.861 0.715-5.509 2.146-7.944s3.363-4.367 5.798-5.798 5.082-2.146 7.944-2.146zM16 28.913c2.306 0 4.442-0.577 6.406-1.73s3.523-2.712 4.677-4.677c1.153-1.965 1.73-4.1 1.73-6.406s-0.577-4.442-1.73-6.406c-1.153-1.965-2.712-3.523-4.677-4.677s-4.1-1.73-6.406-1.73-4.442 0.577-6.406 1.73c-1.965 1.153-3.523 2.712-4.677 4.677s-1.73 4.1-1.73 6.406 0.577 4.442 1.73 6.406c1.153 1.965 2.712 3.523 4.677 4.677s4.1 1.73 6.406 1.73zM14.206 17.638c0 0.256 0.107 0.47 0.32 0.641l5.445 3.972c0.171 0.128 0.363 0.171 0.577 0.128s0.384-0.149 0.512-0.32l1.153-1.666c0.128-0.171 0.182-0.363 0.16-0.577s-0.117-0.384-0.288-0.512l-4.292-3.075v-9.097c0-0.214-0.075-0.395-0.224-0.545s-0.331-0.224-0.545-0.224h-2.050c-0.214 0-0.395 0.075-0.545 0.224s-0.224 0.331-0.224 0.545v10.506z"></path>
</symbol>
<symbol id="icon-clock" viewBox="0 0 32 32">
<title>clock</title>
<path d="M16 0.212c2.819 0 5.509 0.769 7.944 2.178s4.356 3.331 5.766 5.766c1.409 2.434 2.178 5.125 2.178 7.944 0 2.883-0.769 5.509-2.178 7.944s-3.331 4.42-5.766 5.83c-2.434 1.409-5.125 2.114-7.944 2.114-2.883 0-5.509-0.705-7.944-2.114s-4.42-3.395-5.83-5.83c-1.409-2.434-2.114-5.061-2.114-7.944 0-2.819 0.705-5.509 2.114-7.944s3.395-4.356 5.83-5.766c2.434-1.409 5.061-2.178 7.944-2.178zM19.652 22.634c0.128 0.128 0.32 0.192 0.577 0.128 0.192 0 0.384-0.128 0.513-0.32l1.794-2.434c0.128-0.128 0.128-0.32 0.128-0.577 0-0.192-0.128-0.384-0.256-0.512l-4.1-2.947v-8.841c0-0.192-0.128-0.384-0.256-0.512s-0.32-0.256-0.512-0.256h-3.075c-0.256 0-0.448 0.128-0.577 0.256s-0.192 0.32-0.192 0.512v10.763c0 0.256 0.064 0.512 0.32 0.641l5.637 4.1z"></path>
</symbol>
<symbol id="icon-compass" viewBox="0 0 32 32">
<title>compass</title>
<path d="M14.414 14.627c0.384-0.384 0.897-0.577 1.473-0.577 0.512 0 1.025 0.256 1.409 0.641s0.641 0.897 0.641 1.409c0 0.577-0.256 1.089-0.641 1.473s-0.897 0.577-1.409 0.577c-0.577 0-1.089-0.192-1.473-0.577s-0.577-0.897-0.577-1.473c0-0.512 0.192-1.025 0.577-1.473zM15.888 0.212c2.819 0 5.509 0.769 7.944 2.178s4.356 3.331 5.766 5.766c1.409 2.434 2.178 5.125 2.178 7.944 0 2.883-0.769 5.509-2.178 7.944s-3.331 4.42-5.766 5.83c-2.434 1.409-5.125 2.114-7.944 2.114-2.883 0-5.509-0.705-7.944-2.114s-4.42-3.395-5.83-5.83c-1.409-2.434-2.114-5.061-2.114-7.944 0-2.819 0.705-5.509 2.114-7.944s3.395-4.356 5.83-5.766c2.434-1.409 5.061-2.178 7.944-2.178zM23.959 9.694c0.128-0.32 0.128-0.641 0-0.961s-0.384-0.577-0.705-0.705-0.641-0.128-0.961 0l-9.225 4.228c-0.513 0.256-0.833 0.577-1.025 1.025l-4.228 9.225c-0.192 0.384-0.192 0.705-0.064 1.025s0.384 0.577 0.705 0.705c0.32 0.128 0.641 0.128 1.025-0.064l9.225-4.228c0.448-0.192 0.769-0.513 1.025-1.025l4.228-9.225z"></path>
</symbol>
<symbol id="icon-link" viewBox="0 0 32 32">
<title>link</title>
<path d="M20.577 11.52c-0.432-0.37-0.864-0.679-1.297-1.050-0.247-0.123-0.432-0.123-0.679-0.123s-0.432 0.123-0.556 0.247l-1.358 1.297c-0.494 0.494-0.741 1.111-0.679 1.852 0 0.37 0.123 0.617 0.37 0.741 0.247 0.185 0.432 0.37 0.679 0.556 0.864 0.864 1.297 1.914 1.297 3.149s-0.432 2.285-1.297 3.149l-4.137 4.137c-0.864 0.864-1.914 1.297-3.149 1.297s-2.285-0.432-3.149-1.297-1.297-1.914-1.297-3.149c0-1.235 0.494-2.285 1.358-3.149l0.803-0.864c0.247-0.247 0.37-0.617 0.247-0.988-0.37-1.050-0.617-2.161-0.617-3.273-0.062-0.37-0.309-0.679-0.679-0.864-0.37-0.123-0.741-0.062-0.988 0.185l-2.346 2.346c-1.235 1.235-2.038 2.593-2.408 4.199-0.432 1.605-0.432 3.211 0 4.816 0.37 1.605 1.173 3.026 2.408 4.261s2.655 2.038 4.261 2.408c1.605 0.432 3.211 0.432 4.816 0 1.605-0.37 2.964-1.173 4.199-2.408l4.199-4.199c1.173-1.173 1.976-2.593 2.408-4.199 0.37-1.605 0.37-3.211 0-4.816-0.432-1.605-1.235-3.026-2.408-4.261zM29.283 2.813c1.173 1.235 1.976 2.655 2.408 4.261 0.37 1.605 0.37 3.211 0 4.816-0.432 1.605-1.235 3.026-2.408 4.199l-2.346 2.346c-0.309 0.309-0.679 0.37-1.050 0.185-0.37-0.123-0.617-0.432-0.617-0.864-0.062-1.111-0.247-2.161-0.617-3.273-0.123-0.37-0.062-0.679 0.247-0.988l0.803-0.864c0.864-0.864 1.297-1.852 1.297-3.087s-0.37-2.285-1.235-3.149c-0.864-0.864-1.914-1.358-3.149-1.358s-2.285 0.432-3.149 1.297l-4.137 4.137c-0.864 0.864-1.297 1.914-1.297 3.149s0.432 2.285 1.297 3.149c0.185 0.247 0.432 0.432 0.679 0.556 0.247 0.185 0.37 0.432 0.37 0.741 0 0.741-0.185 1.358-0.679 1.852l-1.358 1.297c-0.185 0.185-0.37 0.309-0.617 0.309s-0.432-0.062-0.617-0.185c-0.494-0.309-0.926-0.679-1.297-1.050-1.235-1.235-2.038-2.655-2.408-4.261-0.432-1.605-0.432-3.211 0-4.816 0.37-1.605 1.173-2.964 2.408-4.199l4.199-4.199c1.173-1.173 2.593-1.976 4.199-2.408 1.605-0.37 3.211-0.37 4.816 0 1.605 0.432 3.026 1.235 4.261 2.408z"></path>
</symbol>
<symbol id="icon-lock" viewBox="0 0 28 32">
<title>lock</title>
<path d="M26.798 14.792c-0.576-0.576-1.276-0.864-2.099-0.864h-1.482v-4.446c0-1.688-0.422-3.252-1.266-4.693s-1.986-2.583-3.427-3.427c-1.441-0.844-3.005-1.266-4.693-1.266s-3.252 0.422-4.693 1.266c-1.441 0.844-2.583 1.986-3.427 3.427s-1.266 3.005-1.266 4.693v4.446h-1.482c-0.823 0-1.523 0.288-2.099 0.864s-0.864 1.276-0.864 2.099v11.855c0 0.823 0.288 1.523 0.864 2.099s1.276 0.864 2.099 0.864h21.735c0.823 0 1.523-0.288 2.099-0.864s0.864-1.276 0.864-2.099v-11.855c0-0.823-0.288-1.523-0.864-2.099zM18.277 9.482v4.446h-8.892v-4.446c0-1.235 0.432-2.285 1.297-3.149s1.914-1.297 3.149-1.297 2.285 0.432 3.149 1.297c0.864 0.864 1.297 1.914 1.297 3.149z"></path>
</symbol>
<symbol id="icon-search" viewBox="0 0 32 32">
<title>search</title>
<path d="M31.614 28.5c0-0.412-0.144-0.762-0.432-1.050l-6.175-6.175c-0.288-0.288-0.638-0.432-1.050-0.432h-0.988c1.811-2.305 2.717-4.94 2.717-7.904 0-2.346-0.576-4.497-1.729-6.453s-2.707-3.509-4.662-4.662c-1.955-1.153-4.106-1.729-6.453-1.729s-4.497 0.576-6.453 1.729c-1.955 1.153-3.509 2.707-4.662 4.662s-1.729 4.106-1.729 6.453c0 2.346 0.576 4.497 1.729 6.453s2.707 3.509 4.662 4.662c1.955 1.153 4.106 1.729 6.453 1.729 2.964 0 5.598-0.906 7.904-2.717v0.988c0 0.412 0.144 0.762 0.432 1.050l6.175 6.175c0.288 0.288 0.638 0.432 1.050 0.432s0.762-0.144 1.050-0.432l1.729-1.729c0.288-0.288 0.432-0.638 0.432-1.050zM16.826 19.794c-1.214 0.7-2.542 1.050-3.983 1.050s-2.768-0.35-3.983-1.050c-1.214-0.7-2.171-1.657-2.871-2.871s-1.050-2.542-1.050-3.983 0.35-2.768 1.050-3.983c0.7-1.214 1.657-2.171 2.871-2.871s2.542-1.050 3.983-1.050c1.441 0 2.768 0.35 3.983 1.050s2.171 1.657 2.871 2.871c0.7 1.214 1.050 2.542 1.050 3.983s-0.35 2.768-1.050 3.983c-0.7 1.214-1.657 2.171-2.871 2.871z"></path>
</symbol>
<symbol id="icon-socket" viewBox="0 0 24 32">
<title>socket</title>
<path d="M15.807 2.072c0-0.535 0.196-0.998 0.587-1.389s0.854-0.587 1.389-0.587c0.535 0 0.998 0.196 1.389 0.587s0.587 0.854 0.587 1.389v6.916h-3.952v-6.916zM22.723 9.976c0.288 0 0.525 0.093 0.71 0.278s0.278 0.422 0.278 0.71v1.976c0 0.288-0.093 0.525-0.278 0.71s-0.422 0.278-0.71 0.278h-0.988v1.976c0 2.388-0.751 4.487-2.254 6.298s-3.386 2.943-5.65 3.396v6.113h-3.952v-6.113c-2.264-0.453-4.147-1.585-5.65-3.396s-2.254-3.911-2.254-6.298v-1.976h-0.988c-0.288 0-0.525-0.093-0.71-0.278s-0.278-0.422-0.278-0.71v-1.976c0-0.288 0.093-0.525 0.278-0.71s0.422-0.278 0.71-0.278h21.735zM3.952 8.988h3.952v-6.916c0-0.535-0.196-0.998-0.587-1.389s-0.854-0.587-1.389-0.587c-0.535 0-0.998 0.196-1.389 0.587s-0.587 0.854-0.587 1.389v6.916z"></path>
</symbol>
<symbol id="icon-speed" viewBox="0 0 20 32">
<title>speed</title>
<path d="M18.663 9.976c0.576 0 1.009 0.247 1.297 0.741s0.288 0.988 0 1.482l-10.867 18.771c-0.288 0.494-0.72 0.741-1.297 0.741-0.494 0-0.885-0.185-1.173-0.556s-0.37-0.803-0.247-1.297l2.84-11.979h-7.348c-0.453 0-0.823-0.165-1.111-0.494s-0.412-0.72-0.37-1.173l1.976-14.819c0.041-0.37 0.206-0.679 0.494-0.926s0.617-0.37 0.988-0.37h8.892c0.494 0 0.885 0.196 1.173 0.587s0.37 0.813 0.247 1.266l-2.593 8.027h7.101z"></path>
</symbol>
<symbol id="icon-unlock" viewBox="0 0 28 32">
<title>unlock</title>
<path d="M24.699 15.904c0.823 0 1.523 0.288 2.099 0.864s0.864 1.276 0.864 2.099v9.879c0 0.823-0.288 1.523-0.864 2.099s-1.276 0.864-2.099 0.864h-21.735c-0.823 0-1.523-0.288-2.099-0.864s-0.864-1.276-0.864-2.099v-9.879c0-0.823 0.288-1.523 0.864-2.099s1.276-0.864 2.099-0.864h1.482v-6.36c0-1.688 0.422-3.252 1.266-4.693s1.976-2.593 3.396-3.458c1.42-0.864 2.984-1.297 4.693-1.297s3.283 0.422 4.724 1.266c1.441 0.844 2.583 1.986 3.427 3.427s1.266 3.005 1.266 4.693v0.988c0 0.412-0.144 0.762-0.432 1.050s-0.638 0.432-1.050 0.432h-1.976c-0.412 0-0.762-0.144-1.050-0.432s-0.432-0.638-0.432-1.050v-0.988c0-1.235-0.442-2.285-1.328-3.149s-1.935-1.297-3.149-1.297c-1.214 0-2.254 0.442-3.118 1.328s-1.297 1.945-1.297 3.18v6.36h15.313z"></path>
</symbol>
</defs>
</svg>
