<svg style="position: absolute; width: 0; height: 0; overflow: hidden;" version="1.1" xmlns="http://www.w3.org/2000/svg">
<defs>
<symbol id="icon-clock" viewBox="0 0 32 32">
<title>clock</title>
<path d="M18.667 8.667v9.333c0 0.375-0.292 0.667-0.667 0.667h-6.667c-0.375 0-0.667-0.292-0.667-0.667v-1.333c0-0.375 0.292-0.667 0.667-0.667h4.667v-7.333c0-0.375 0.292-0.667 0.667-0.667h1.333c0.375 0 0.667 0.292 0.667 0.667zM27.333 16c0-6.25-5.083-11.333-11.333-11.333s-11.333 5.083-11.333 11.333c0 6.25 5.083 11.333 11.333 11.333s11.333-5.083 11.333-11.333zM32 16c0 8.833-7.167 16-16 16s-16-7.167-16-16c0-8.833 7.167-16 16-16s16 7.167 16 16z"></path>
</symbol>
<symbol id="icon-lock" viewBox="0 0 26 32">
<title>lock</title>
<path d="M7.273 14.545h11.636v-4.364c0-3.205-2.614-5.818-5.818-5.818s-5.818 2.614-5.818 5.818v4.364zM26.182 16.727v13.091c0 1.205-0.977 2.182-2.182 2.182h-21.818c-1.205 0-2.182-0.977-2.182-2.182v-13.091c0-1.205 0.977-2.182 2.182-2.182h0.727v-4.364c0-5.591 4.591-10.182 10.182-10.182s10.182 4.591 10.182 10.182v4.364h0.727c1.205 0 2.182 0.977 2.182 2.182z"></path>
</symbol>
<symbol id="icon-bolt" viewBox="0 0 17 32">
<title>bolt</title>
<path d="M17.019 8.423c-0.173-0.173-0.404-0.288-0.654-0.288-0.077 0-0.154 0.019-0.231 0.038l-7.615 1.885 3.288-8.904c0.058-0.115 0.096-0.231 0.096-0.346 0-0.442-0.385-0.808-0.865-0.808h-6.308c-0.404 0-0.75 0.25-0.846 0.615l-3.865 15.865c-0.058 0.269 0.019 0.558 0.25 0.75 0.154 0.135 0.385 0.212 0.596 0.212 0.077 0 0.154 0 0.231-0.019l7.808-1.942-3.788 15.538c-0.096 0.404 0.154 0.808 0.577 0.942 0.096 0.019 0.192 0.038 0.269 0.038 0.346 0 0.654-0.192 0.808-0.481l10.385-22.25c0.135-0.288 0.077-0.615-0.135-0.846z"></path>
</symbol>
<symbol id="icon-search" viewBox="0 0 32 32">
<title>search</title>
<path d="M22.338 13.714c0-4.643-3.778-8.421-8.421-8.421s-8.421 3.778-8.421 8.421c0 4.643 3.778 8.421 8.421 8.421s8.421-3.778 8.421-8.421zM31.962 29.353c0 1.316-1.090 2.406-2.406 2.406-0.639 0-1.259-0.263-1.692-0.714l-6.447-6.429c-2.199 1.523-4.831 2.331-7.5 2.331-7.312 0-13.233-5.921-13.233-13.233s5.921-13.233 13.233-13.233c7.312 0 13.233 5.921 13.233 13.233 0 2.669-0.808 5.301-2.331 7.5l6.447 6.447c0.432 0.432 0.695 1.053 0.695 1.692z"></path>
</symbol>
<symbol id="icon-unlock" viewBox="0 0 24 32">
<title>unlock</title>
<path d="M22 16h-15.333v-6.667c0-2.938 2.396-5.333 5.333-5.333s5.333 2.396 5.333 5.333c0 0.729 0.604 1.333 1.333 1.333h1.333c0.729 0 1.333-0.604 1.333-1.333 0-5.146-4.188-9.333-9.333-9.333s-9.333 4.188-9.333 9.333v6.667h-0.667c-1.104 0-2 0.896-2 2v12c0 1.104 0.896 2 2 2h20c1.104 0 2-0.896 2-2v-12c0-1.104-0.896-2-2-2z"></path>
</symbol>
<symbol id="icon-plug-uk" viewBox="0 0 37 32">
<title>Plugs available</title>
<path d="M35.325 22.024l-9.758-17.227c-1.581-2.998-3.98-3.816-6.923-3.816s-5.288 0.818-6.923 3.816l-9.704 17.227c-2.399 4.47 0.6 8.995 5.397 8.995h22.569c4.743 0 7.741-4.525 5.342-8.995zM15.864 22.787c0 0.763-0.654 1.417-1.417 1.417h-4.688c-0.763 0-1.417-0.654-1.417-1.417v-0.981c0-0.763 0.654-1.417 1.417-1.417h4.688c0.763 0 1.417 0.654 1.417 1.417v0.981zM20.606 14.828c0 0.763-0.654 1.417-1.417 1.417h-0.981c-0.763 0-1.417-0.654-1.417-1.417v-4.688c0-0.763 0.654-1.417 1.417-1.417h0.981c0.763 0 1.417 0.654 1.417 1.417v4.688zM29.002 22.787c0 0.763-0.654 1.417-1.417 1.417h-4.688c-0.763 0-1.417-0.654-1.417-1.417v-0.981c0-0.763 0.654-1.417 1.417-1.417h4.688c0.763 0 1.417 0.654 1.417 1.417v0.981z"></path>
</symbol>
</defs>
</svg>
