<svg aria-hidden="true" style="position: absolute; width: 0; height: 0; overflow: hidden;" version="1.1" xmlns="http://www.w3.org/2000/svg" xmlns:xlink="http://www.w3.org/1999/xlink">
<defs>
<symbol id="icon-clock-outline" viewBox="0 0 32 32">
<path d="M16 0.213c2.861 0 5.509 0.715 7.944 2.146s4.367 3.363 5.798 5.798c1.431 2.434 2.146 5.082 2.146 7.944s-0.715 5.509-2.146 7.944c-1.431 2.434-3.363 4.367-5.798 5.798s-5.082 2.146-7.944 2.146-5.509-0.715-7.944-2.146c-2.434-1.431-4.367-3.363-5.798-5.798s-2.146-5.082-2.146-7.944c0-2.861 0.715-5.509 2.146-7.944s3.363-4.367 5.798-5.798 5.082-2.146 7.944-2.146zM16 28.913c2.306 0 4.442-0.577 6.406-1.73s3.523-2.712 4.677-4.677c1.153-1.965 1.73-4.1 1.73-6.406s-0.577-4.442-1.73-6.406c-1.153-1.965-2.712-3.523-4.677-4.677s-4.1-1.73-6.406-1.73-4.442 0.577-6.406 1.73c-1.965 1.153-3.523 2.712-4.677 4.677s-1.73 4.1-1.73 6.406 0.577 4.442 1.73 6.406c1.153 1.965 2.712 3.523 4.677 4.677s4.1 1.73 6.406 1.73zM14.206 17.638c0 0.256 0.107 0.47 0.32 0.641l5.445 3.972c0.171 0.128 0.363 0.171 0.577 0.128s0.384-0.149 0.512-0.32l1.153-1.666c0.128-0.171 0.182-0.363 0.16-0.577s-0.117-0.384-0.288-0.512l-4.292-3.075v-9.097c0-0.214-0.075-0.395-0.224-0.545s-0.331-0.224-0.545-0.224h-2.050c-0.214 0-0.395 0.075-0.545 0.224s-0.224 0.331-0.224 0.545v10.506z"></path>
</symbol>
<symbol id="icon-clock" viewBox="0 0 24 24">
<path d="M23 12c0-1.488-0.296-2.91-0.833-4.207-0.558-1.347-1.375-2.558-2.388-3.571s-2.224-1.831-3.571-2.388c-1.298-0.538-2.72-0.834-4.208-0.834s-2.91 0.296-4.207 0.833c-1.347 0.558-2.558 1.375-3.571 2.389s-1.831 2.224-2.389 3.571c-0.537 1.297-0.833 2.719-0.833 4.207s0.296 2.91 0.833 4.207c0.558 1.347 1.375 2.558 2.388 3.571s2.224 1.831 3.571 2.388c1.298 0.538 2.72 0.834 4.208 0.834s2.91-0.296 4.207-0.833c1.347-0.558 2.558-1.375 3.571-2.388s1.831-2.224 2.388-3.571c0.538-1.298 0.834-2.72 0.834-4.208zM21 12c0 1.221-0.243 2.383-0.681 3.442-0.456 1.101-1.124 2.092-1.955 2.922s-1.822 1.499-2.922 1.955c-1.059 0.438-2.221 0.681-3.442 0.681s-2.383-0.243-3.442-0.681c-1.101-0.456-2.092-1.124-2.922-1.955-0.831-0.831-1.499-1.822-1.955-2.922-0.438-1.059-0.681-2.221-0.681-3.442s0.243-2.383 0.681-3.442c0.456-1.101 1.124-2.092 1.955-2.922s1.822-1.499 2.922-1.955c1.059-0.438 2.221-0.681 3.442-0.681s2.383 0.243 3.442 0.681c1.101 0.456 2.092 1.124 2.922 1.955 0.831 0.831 1.499 1.822 1.955 2.922 0.438 1.059 0.681 2.221 0.681 3.442zM11 6v6c0 0.389 0.222 0.727 0.553 0.894l4 2c0.494 0.247 1.095 0.047 1.342-0.447s0.047-1.095-0.447-1.342l-3.448-1.723v-5.382c0-0.552-0.448-1-1-1s-1 0.448-1 1z"></path>
</symbol>
<symbol id="icon-compass" viewBox="0 0 24 24">
<path d="M23 12c0-1.488-0.296-2.91-0.833-4.207-0.558-1.347-1.375-2.558-2.388-3.571s-2.224-1.831-3.571-2.388c-1.298-0.538-2.72-0.834-4.208-0.834s-2.91 0.296-4.207 0.833c-1.347 0.558-2.558 1.375-3.571 2.389s-1.831 2.224-2.389 3.571c-0.537 1.297-0.833 2.719-0.833 4.207s0.296 2.91 0.833 4.207c0.558 1.347 1.375 2.558 2.388 3.571s2.224 1.831 3.571 2.388c1.298 0.538 2.72 0.834 4.208 0.834s2.91-0.296 4.207-0.833c1.347-0.558 2.558-1.375 3.571-2.388s1.831-2.224 2.388-3.571c0.538-1.298 0.834-2.72 0.834-4.208zM21 12c0 1.221-0.243 2.383-0.681 3.442-0.456 1.101-1.124 2.092-1.955 2.922s-1.822 1.499-2.922 1.955c-1.059 0.438-2.221 0.681-3.442 0.681s-2.383-0.243-3.442-0.681c-1.101-0.456-2.092-1.124-2.922-1.955-0.831-0.831-1.499-1.822-1.955-2.922-0.438-1.059-0.681-2.221-0.681-3.442s0.243-2.383 0.681-3.442c0.456-1.101 1.124-2.092 1.955-2.922s1.822-1.499 2.922-1.955c1.059-0.438 2.221-0.681 3.442-0.681s2.383 0.243 3.442 0.681c1.101 0.456 2.092 1.124 2.922 1.955 0.831 0.831 1.499 1.822 1.955 2.922 0.438 1.059 0.681 2.221 0.681 3.442zM17.189 8.076c0.066-0.196 0.072-0.418 0-0.632-0.175-0.524-0.741-0.807-1.265-0.632l-6.36 2.12c-0.29 0.098-0.529 0.323-0.632 0.632l-2.12 6.36c-0.066 0.196-0.072 0.418 0 0.632 0.175 0.524 0.741 0.807 1.265 0.632l6.36-2.12c0.29-0.098 0.529-0.323 0.632-0.632zM14.659 9.341l-1.33 3.988-3.988 1.33 1.329-3.988z"></path>
</symbol>
<symbol id="icon-link" viewBox="0 0 24 24">
<path d="M9.199 13.599c0.486 0.649 1.080 1.174 1.739 1.565 0.684 0.406 1.437 0.668 2.21 0.78s1.569 0.073 2.34-0.124c0.743-0.189 1.461-0.525 2.11-1.010 0.239-0.179 0.465-0.375 0.655-0.568l2.995-2.994c0.575-0.596 0.998-1.266 1.279-1.979 0.292-0.74 0.43-1.525 0.416-2.306s-0.179-1.561-0.496-2.29c-0.306-0.703-0.751-1.358-1.335-1.921-0.574-0.554-1.232-0.973-1.933-1.254-0.727-0.291-1.497-0.434-2.266-0.43-0.759 0.004-1.517 0.152-2.232 0.442-0.691 0.281-1.339 0.695-1.905 1.24l-1.731 1.721c-0.392 0.389-0.394 1.023-0.004 1.414s1.023 0.394 1.414 0.004l1.709-1.699c0.379-0.366 0.811-0.641 1.271-0.828 0.476-0.194 0.982-0.292 1.49-0.295 0.514-0.003 1.028 0.093 1.511 0.286 0.465 0.186 0.903 0.464 1.288 0.836 0.391 0.378 0.687 0.814 0.89 1.28 0.211 0.485 0.322 1.005 0.331 1.528s-0.083 1.046-0.277 1.538c-0.186 0.473-0.467 0.919-0.833 1.298l-3.005 3.006c-0.114 0.116-0.263 0.247-0.428 0.37-0.435 0.326-0.913 0.548-1.406 0.674-0.513 0.131-1.043 0.157-1.561 0.082s-1.019-0.25-1.474-0.52c-0.437-0.26-0.833-0.608-1.158-1.043-0.331-0.442-0.957-0.533-1.4-0.202s-0.533 0.957-0.202 1.4zM14.801 10.401c-0.486-0.649-1.080-1.174-1.739-1.565-0.684-0.406-1.437-0.668-2.21-0.78s-1.569-0.073-2.34 0.124c-0.743 0.189-1.461 0.525-2.11 1.010-0.239 0.179-0.465 0.375-0.655 0.568l-2.995 2.994c-0.575 0.596-0.998 1.266-1.279 1.979-0.292 0.74-0.43 1.525-0.416 2.306s0.179 1.561 0.496 2.29c0.306 0.703 0.751 1.358 1.335 1.921 0.574 0.554 1.232 0.973 1.933 1.254 0.727 0.291 1.497 0.434 2.266 0.43 0.759-0.004 1.517-0.152 2.232-0.442 0.691-0.281 1.339-0.695 1.905-1.24l1.723-1.723c0.391-0.391 0.391-1.024 0-1.414s-1.024-0.391-1.414 0l-1.697 1.697c-0.379 0.366-0.811 0.641-1.271 0.828-0.476 0.193-0.982 0.292-1.49 0.295-0.514 0.003-1.028-0.093-1.511-0.286-0.465-0.186-0.903-0.464-1.288-0.836-0.391-0.378-0.687-0.814-0.89-1.28-0.211-0.485-0.322-1.005-0.331-1.528s0.083-1.046 0.277-1.538c0.186-0.473 0.467-0.919 0.833-1.298l3.005-3.006c0.114-0.116 0.263-0.247 0.428-0.37 0.435-0.326 0.913-0.548 1.406-0.674 0.513-0.131 1.043-0.157 1.561-0.082s1.019 0.25 1.474 0.52c0.437 0.26 0.833 0.608 1.158 1.043 0.331 0.442 0.957 0.533 1.4 0.202s0.533-0.957 0.202-1.4z"></path>
</symbol>
<symbol id="icon-lock" viewBox="0 0 24 24">
<path d="M5 12h14c0.137 0 0.266 0.027 0.382 0.075 0.122 0.050 0.232 0.125 0.325 0.218s0.167 0.203 0.218 0.325c0.048 0.116 0.075 0.245 0.075 0.382v7c0 0.137-0.027 0.266-0.075 0.382-0.050 0.122-0.125 0.232-0.218 0.325s-0.203 0.167-0.325 0.218c-0.116 0.048-0.245 0.075-0.382 0.075h-14c-0.137 0-0.266-0.027-0.382-0.075-0.122-0.050-0.232-0.125-0.325-0.218s-0.167-0.203-0.218-0.325c-0.048-0.116-0.075-0.245-0.075-0.382v-7c0-0.137 0.027-0.266 0.075-0.382 0.050-0.122 0.125-0.232 0.218-0.325s0.203-0.167 0.325-0.218c0.116-0.048 0.245-0.075 0.382-0.075zM18 10v-3c0-0.811-0.161-1.587-0.455-2.295-0.304-0.735-0.75-1.395-1.303-1.948s-1.213-0.998-1.948-1.303c-0.707-0.293-1.483-0.454-2.294-0.454s-1.587 0.161-2.295 0.455c-0.735 0.304-1.395 0.75-1.948 1.302s-0.998 1.213-1.302 1.948c-0.294 0.708-0.455 1.484-0.455 2.295v3h-1c-0.405 0-0.793 0.081-1.148 0.228-0.368 0.152-0.698 0.375-0.974 0.651s-0.499 0.606-0.651 0.974c-0.146 0.354-0.227 0.742-0.227 1.147v7c0 0.405 0.081 0.793 0.228 1.148 0.152 0.368 0.375 0.698 0.651 0.974s0.606 0.499 0.974 0.651c0.354 0.146 0.742 0.227 1.147 0.227h14c0.405 0 0.793-0.081 1.148-0.228 0.368-0.152 0.698-0.375 0.974-0.651s0.499-0.606 0.651-0.974c0.146-0.354 0.227-0.742 0.227-1.147v-7c0-0.405-0.081-0.793-0.228-1.148-0.152-0.368-0.375-0.698-0.651-0.974s-0.606-0.499-0.974-0.651c-0.354-0.146-0.742-0.227-1.147-0.227zM8 10v-3c0-0.544 0.108-1.060 0.303-1.529 0.202-0.489 0.5-0.929 0.869-1.299s0.81-0.667 1.299-0.869c0.469-0.195 0.985-0.303 1.529-0.303s1.060 0.108 1.529 0.303c0.489 0.202 0.929 0.5 1.299 0.869s0.667 0.81 0.869 1.299c0.195 0.469 0.303 0.985 0.303 1.529v3z"></path>
</symbol>
<symbol id="icon-search" viewBox="0 0 24 24">
<path d="M16.041 15.856c-0.034 0.026-0.067 0.055-0.099 0.087s-0.060 0.064-0.087 0.099c-0.627 0.604-1.365 1.091-2.18 1.429-0.822 0.34-1.725 0.529-2.675 0.529s-1.853-0.189-2.677-0.53c-0.856-0.354-1.627-0.874-2.273-1.521s-1.166-1.417-1.521-2.273c-0.34-0.823-0.529-1.726-0.529-2.676s0.189-1.853 0.53-2.677c0.354-0.855 0.874-1.627 1.52-2.273s1.418-1.166 2.273-1.52c0.824-0.341 1.727-0.53 2.677-0.53s1.853 0.189 2.677 0.53c0.856 0.354 1.627 0.874 2.273 1.521s1.166 1.417 1.521 2.273c0.34 0.823 0.529 1.726 0.529 2.676s-0.189 1.853-0.53 2.677c-0.338 0.815-0.825 1.553-1.429 2.18zM21.707 20.293l-3.675-3.675c0.525-0.656 0.96-1.387 1.286-2.176 0.44-1.062 0.682-2.225 0.682-3.442s-0.242-2.38-0.682-3.442c-0.456-1.102-1.125-2.093-1.954-2.922s-1.82-1.498-2.922-1.954c-1.062-0.44-2.225-0.682-3.442-0.682s-2.38 0.242-3.442 0.682c-1.102 0.456-2.093 1.125-2.922 1.954s-1.498 1.82-1.954 2.922c-0.44 1.062-0.682 2.225-0.682 3.442s0.242 2.38 0.682 3.442c0.456 1.102 1.125 2.093 1.954 2.922s1.82 1.498 2.922 1.954c1.062 0.44 2.225 0.682 3.442 0.682s2.38-0.242 3.442-0.682c0.788-0.327 1.52-0.762 2.176-1.286l3.675 3.675c0.391 0.391 1.024 0.391 1.414 0s0.391-1.024 0-1.414z"></path>
</symbol>
<symbol id="icon-socket" viewBox="0 0 24 32">
<path d="M15.807 2.072c0-0.535 0.196-0.998 0.587-1.389s0.854-0.587 1.389-0.587c0.535 0 0.998 0.196 1.389 0.587s0.587 0.854 0.587 1.389v6.916h-3.952v-6.916zM22.723 9.976c0.288 0 0.525 0.093 0.71 0.278s0.278 0.422 0.278 0.71v1.976c0 0.288-0.093 0.525-0.278 0.71s-0.422 0.278-0.71 0.278h-0.988v1.976c0 2.388-0.751 4.487-2.254 6.298s-3.386 2.943-5.65 3.396v6.113h-3.952v-6.113c-2.264-0.453-4.147-1.585-5.65-3.396s-2.254-3.911-2.254-6.298v-1.976h-0.988c-0.288 0-0.525-0.093-0.71-0.278s-0.278-0.422-0.278-0.71v-1.976c0-0.288 0.093-0.525 0.278-0.71s0.422-0.278 0.71-0.278h21.735zM3.952 8.988h3.952v-6.916c0-0.535-0.196-0.998-0.587-1.389s-0.854-0.587-1.389-0.587c-0.535 0-0.998 0.196-1.389 0.587s-0.587 0.854-0.587 1.389v6.916z"></path>
</symbol>
<symbol id="icon-speed" viewBox="0 0 24 24">
<path d="M11.585 5.26l-0.577 4.616c-0.005 0.037-0.008 0.080-0.008 0.124 0 0.552 0.448 1 1 1h6.865l-6.45 7.74 0.577-4.616c0.005-0.037 0.008-0.080 0.008-0.124 0-0.552-0.448-1-1-1h-6.865zM12.232 1.36l-10 12c-0.354 0.424-0.296 1.055 0.128 1.408 0.187 0.157 0.415 0.233 0.64 0.232h7.867l-0.859 6.876c-0.069 0.548 0.32 1.048 0.868 1.116 0.349 0.044 0.678-0.098 0.892-0.352l10-12c0.354-0.424 0.296-1.055-0.128-1.408-0.187-0.157-0.415-0.233-0.64-0.232h-7.867l0.859-6.876c0.069-0.548-0.32-1.048-0.868-1.116-0.349-0.044-0.678 0.098-0.892 0.352z"></path>
</symbol>
<symbol id="icon-unlock" viewBox="0 0 24 24">
<path d="M5 12h14c0.137 0 0.266 0.027 0.382 0.075 0.122 0.050 0.232 0.125 0.325 0.218s0.167 0.203 0.218 0.325c0.048 0.116 0.075 0.245 0.075 0.382v7c0 0.137-0.027 0.266-0.075 0.382-0.050 0.122-0.125 0.232-0.218 0.325s-0.203 0.167-0.325 0.218c-0.116 0.048-0.245 0.075-0.382 0.075h-14c-0.137 0-0.266-0.027-0.382-0.075-0.122-0.050-0.232-0.125-0.325-0.218s-0.167-0.203-0.218-0.325c-0.048-0.116-0.075-0.245-0.075-0.382v-7c0-0.137 0.027-0.266 0.075-0.382 0.050-0.122 0.125-0.232 0.218-0.325s0.203-0.167 0.325-0.218c0.116-0.048 0.245-0.075 0.382-0.075zM8 10v-3c-0.001-0.545 0.107-1.061 0.301-1.531 0.202-0.489 0.499-0.93 0.868-1.3s0.81-0.667 1.298-0.87c0.47-0.195 0.985-0.304 1.529-0.304 0.5-0.001 0.977 0.090 1.416 0.257 0.454 0.172 0.87 0.425 1.23 0.744 0.322 0.285 0.598 0.622 0.816 0.998 0.214 0.369 0.373 0.776 0.463 1.211 0.113 0.541 0.642 0.888 1.183 0.775s0.888-0.642 0.775-1.183c-0.135-0.647-0.371-1.255-0.691-1.807-0.326-0.562-0.739-1.065-1.221-1.491-0.538-0.477-1.163-0.857-1.847-1.117-0.663-0.251-1.38-0.387-2.126-0.386-0.811 0.001-1.586 0.163-2.294 0.457-0.735 0.305-1.395 0.752-1.947 1.305s-0.997 1.212-1.301 1.948c-0.292 0.708-0.453 1.484-0.452 2.294v3h-1c-0.405 0-0.793 0.081-1.148 0.228-0.368 0.152-0.698 0.375-0.974 0.651s-0.499 0.606-0.651 0.974c-0.146 0.354-0.227 0.742-0.227 1.147v7c0 0.405 0.081 0.793 0.228 1.148 0.152 0.368 0.375 0.698 0.651 0.974s0.606 0.499 0.974 0.651c0.354 0.146 0.742 0.227 1.147 0.227h14c0.405 0 0.793-0.081 1.148-0.228 0.368-0.152 0.698-0.375 0.974-0.651s0.499-0.606 0.651-0.974c0.146-0.354 0.227-0.742 0.227-1.147v-7c0-0.405-0.081-0.793-0.228-1.148-0.152-0.368-0.375-0.698-0.651-0.974s-0.606-0.499-0.974-0.651c-0.354-0.146-0.742-0.227-1.147-0.227z"></path>
</symbol>
<symbol id="icon-twitter" viewBox="0 0 24 24">
<path d="M20.833 5.262c-0.186 0.242-0.391 0.475-0.616 0.696-0.233 0.232-0.347 0.567-0.278 0.908 0.037 0.182 0.060 0.404 0.061 0.634 0 1.405-0.174 2.697-0.49 3.871-0.292 1.085-0.707 2.072-1.222 2.958-1.019 1.754-2.437 3.123-4.098 4.069-0.853 0.486-1.772 0.862-2.735 1.12-1.004 0.269-2.056 0.41-3.133 0.416-1.101 0.006-2.227-0.13-3.353-0.416 1.246-0.361 2.46-0.922 3.593-1.69 0.147-0.099 0.273-0.243 0.352-0.421 0.224-0.505-0.003-1.096-0.508-1.32-1.438-0.639-2.487-1.4-3.251-2.205-0.72-0.758-1.203-1.57-1.518-2.389-0.185-0.481-0.313-0.967-0.396-1.449-0.105-0.606-0.138-1.206-0.123-1.778 0.021-0.811 0.138-1.56 0.278-2.182 0.393 0.343 0.802 0.706 1.234 1.038 1.042 0.801 2.22 1.429 3.491 1.843 1.229 0.4 2.544 0.6 3.905 0.565 0.541-0.015 0.974-0.457 0.974-1v-1.011c-0.002-0.179 0.009-0.357 0.034-0.534 0.058-0.411 0.188-0.81 0.387-1.178 0.192-0.354 0.45-0.681 0.774-0.963 0.357-0.311 0.757-0.534 1.177-0.675 0.436-0.146 0.895-0.203 1.349-0.171s0.9 0.151 1.312 0.357c0.396 0.197 0.761 0.474 1.072 0.831 0.252 0.286 0.649 0.416 1.033 0.304 0.231-0.067 0.463-0.143 0.695-0.228zM22.424 2.183c-0.74 0.522-1.523 0.926-2.287 1.205-0.371-0.333-0.779-0.608-1.211-0.823-0.65-0.324-1.353-0.512-2.065-0.562s-1.434 0.039-2.123 0.27c-0.664 0.222-1.295 0.576-1.854 1.062-0.507 0.441-0.915 0.957-1.22 1.518-0.316 0.582-0.52 1.211-0.61 1.854-0.037 0.265-0.055 0.533-0.054 0.8-0.783-0.058-1.539-0.209-2.26-0.444-1.050-0.342-2.026-0.861-2.891-1.526-0.775-0.596-1.461-1.309-2.033-2.116-0.32-0.45-0.944-0.556-1.395-0.237-0.153 0.109-0.267 0.254-0.335 0.41-0.017 0.039-0.367 0.832-0.642 2.050-0.162 0.722-0.301 1.603-0.326 2.571-0.017 0.684 0.022 1.416 0.152 2.169 0.103 0.6 0.265 1.214 0.501 1.827 0.404 1.051 1.024 2.090 1.934 3.048 0.609 0.641 1.34 1.238 2.212 1.775-0.511 0.237-1.034 0.429-1.562 0.579-1.094 0.31-2.214 0.436-3.311 0.388-0.552-0.024-1.019 0.403-1.043 0.955-0.017 0.389 0.19 0.736 0.513 0.918 2.529 1.405 5.221 2.073 7.819 2.059 1.245-0.007 2.468-0.17 3.64-0.484 1.125-0.301 2.203-0.741 3.208-1.314 1.96-1.117 3.636-2.736 4.837-4.802 0.605-1.041 1.087-2.191 1.424-3.442 0.363-1.353 0.558-2.82 0.558-4.391-0.001-0.167-0.008-0.33-0.023-0.489 1.006-1.115 1.676-2.429 1.996-3.781 0.127-0.537-0.206-1.076-0.743-1.203-0.29-0.069-0.58-0.003-0.807 0.156z"></path>
</symbol>
<symbol id="icon-close-outline" viewBox="0 0 32 32">
<path d="M16 0.212c2.819 0 5.509 0.769 7.944 2.178s4.356 3.331 5.766 5.766c1.409 2.434 2.178 5.125 2.178 7.944 0 2.883-0.769 5.509-2.178 7.944s-3.331 4.42-5.766 5.83c-2.434 1.409-5.125 2.114-7.944 2.114-2.883 0-5.509-0.705-7.944-2.114s-4.42-3.395-5.83-5.83c-1.409-2.434-2.114-5.061-2.114-7.944 0-2.819 0.705-5.509 2.114-7.944s3.395-4.356 5.83-5.766c2.434-1.409 5.061-2.178 7.944-2.178zM16 28.912c2.306 0 4.42-0.577 6.406-1.73 1.922-1.153 3.523-2.691 4.677-4.677 1.153-1.922 1.73-4.1 1.73-6.406s-0.577-4.42-1.73-6.406c-1.153-1.922-2.755-3.523-4.677-4.677-1.986-1.153-4.1-1.73-6.406-1.73s-4.484 0.577-6.406 1.73c-1.986 1.153-3.523 2.755-4.677 4.677-1.153 1.986-1.73 4.1-1.73 6.406s0.577 4.484 1.73 6.406c1.153 1.986 2.691 3.523 4.677 4.677 1.922 1.153 4.1 1.73 6.406 1.73zM22.534 12.128c0.128-0.128 0.192-0.32 0.192-0.577 0-0.192-0.064-0.384-0.192-0.512l-1.473-1.473c-0.128-0.128-0.32-0.192-0.512-0.192-0.256 0-0.448 0.064-0.577 0.192l-3.972 3.972-3.972-3.972c-0.192-0.128-0.384-0.192-0.577-0.192-0.256 0-0.384 0.064-0.512 0.192l-1.473 1.473c-0.128 0.128-0.192 0.32-0.192 0.512 0 0.256 0.064 0.448 0.192 0.577l3.972 3.972-3.972 3.972c-0.128 0.192-0.192 0.384-0.192 0.577 0 0.256 0.064 0.384 0.192 0.512l1.473 1.473c0.128 0.128 0.256 0.192 0.512 0.192 0.192 0 0.384-0.064 0.577-0.192l3.972-3.972 3.972 3.972c0.128 0.128 0.32 0.192 0.577 0.192 0.192 0 0.384-0.064 0.512-0.192l1.473-1.473c0.128-0.128 0.192-0.256 0.192-0.512 0-0.192-0.064-0.384-0.192-0.577l-3.972-3.972 3.972-3.972z"></path>
</symbol>
<symbol id="icon-close" viewBox="0 0 32 32">
<path d="M16 0.212c2.819 0 5.509 0.769 7.944 2.178s4.356 3.331 5.766 5.766c1.409 2.434 2.178 5.125 2.178 7.944 0 2.883-0.769 5.509-2.178 7.944s-3.331 4.42-5.766 5.83c-2.434 1.409-5.125 2.114-7.944 2.114-2.883 0-5.509-0.705-7.944-2.114s-4.42-3.395-5.83-5.83c-1.409-2.434-2.114-5.061-2.114-7.944 0-2.819 0.705-5.509 2.114-7.944s3.395-4.356 5.83-5.766c2.434-1.409 5.061-2.178 7.944-2.178zM23.816 20.264l-4.228-4.164 4.228-4.164c0.128-0.128 0.192-0.32 0.192-0.512s-0.064-0.384-0.192-0.577l-2.563-2.563c-0.128-0.128-0.32-0.192-0.512-0.192-0.256 0-0.448 0.064-0.577 0.192l-4.164 4.228-4.164-4.228c-0.192-0.128-0.384-0.192-0.577-0.192s-0.384 0.064-0.512 0.192l-2.563 2.563c-0.128 0.128-0.192 0.32-0.192 0.512 0 0.256 0.064 0.448 0.192 0.577l4.228 4.164-4.228 4.164c-0.128 0.192-0.192 0.384-0.192 0.577s0.064 0.384 0.192 0.512l2.563 2.563c0.128 0.128 0.256 0.192 0.512 0.192 0.192 0 0.384-0.064 0.577-0.192l4.164-4.228 4.164 4.228c0.128 0.128 0.32 0.192 0.512 0.192s0.384-0.064 0.577-0.192l2.563-2.563c0.128-0.128 0.192-0.256 0.192-0.512 0-0.192-0.064-0.384-0.192-0.577z"></path>
</symbol>
<symbol id="icon-speed-alt" viewBox="0 0 23 24">
<path d="M11.403 0.265l-11.271 13.392c-0.265 0.398 0 0.928 0.398 0.928h10.077c0.398 0 0.663 0.265 0.53 0.663l-1.061 8.088c-0.133 0.53 0.663 0.928 1.061 0.398l11.271-13.525c0.398-0.265 0.133-0.928-0.398-0.928h-10.077c-0.398 0-0.663-0.265-0.53-0.663l1.061-8.088c0-0.398-0.663-0.796-1.061-0.265z"></path>
</symbol>
<symbol id="icon-star" viewBox="0 0 32 32">
<path d="M31.5 13.365l-6.981 6.807 1.654 9.615c0.020 0.134 0.020 0.25 0.020 0.385 0 0.5-0.23 0.961-0.789 0.961-0.27 0-0.539-0.096-0.769-0.23l-8.635-4.538-8.635 4.538c-0.25 0.134-0.5 0.23-0.769 0.23-0.558 0-0.807-0.462-0.807-0.961 0-0.134 0.020-0.25 0.038-0.385l1.654-9.615-7.001-6.807c-0.23-0.25-0.481-0.577-0.481-0.923 0-0.577 0.596-0.807 1.077-0.885l9.654-1.404 4.327-8.75c0.174-0.366 0.5-0.789 0.943-0.789s0.769 0.423 0.943 0.789l4.327 8.75 9.654 1.404c0.462 0.078 1.077 0.308 1.077 0.885-0.001 0.346-0.251 0.673-0.501 0.923z"></path>
</symbol>
<symbol id="icon-star-half" viewBox="0 0 32 32">
<path fill="#555877" d="M31.5 13.365l-6.981 6.807 1.654 9.615c0.020 0.134 0.020 0.25 0.020 0.385 0 0.5-0.23 0.961-0.789 0.961-0.27 0-0.539-0.096-0.769-0.23l-8.635-4.538-8.635 4.538c-0.25 0.134-0.5 0.23-0.769 0.23-0.558 0-0.807-0.462-0.807-0.961 0-0.134 0.020-0.25 0.038-0.385l1.654-9.615-7.001-6.807c-0.23-0.25-0.481-0.577-0.481-0.923 0-0.577 0.596-0.807 1.077-0.885l9.654-1.404 4.327-8.75c0.174-0.366 0.5-0.789 0.943-0.789s0.769 0.423 0.943 0.789l4.327 8.75 9.654 1.404c0.462 0.078 1.077 0.308 1.077 0.885-0.001 0.346-0.251 0.673-0.501 0.923z"></path>
<path fill="currentColor" d="M16 0.615v25.75l-8.635 4.538c-0.25 0.134-0.5 0.23-0.769 0.23-0.558 0-0.807-0.462-0.807-0.961 0-0.134 0.020-0.25 0.038-0.385l1.654-9.615-7.001-6.807c-0.23-0.25-0.481-0.577-0.481-0.923 0-0.577 0.596-0.807 1.077-0.885l9.654-1.404 4.327-8.75c0.174-0.366 0.5-0.789 0.943-0.789v0 0.001z"></path>
</symbol>
<symbol id="icon-thumbs-up" viewBox="0 0 24 24">
<path d="M6 12v9h-2c-0.137 0-0.266-0.027-0.382-0.075-0.122-0.050-0.232-0.125-0.325-0.218s-0.167-0.203-0.218-0.325c-0.048-0.116-0.075-0.245-0.075-0.382v-7c0-0.137 0.027-0.266 0.075-0.382 0.050-0.122 0.125-0.232 0.218-0.325s0.203-0.167 0.325-0.218c0.116-0.048 0.245-0.075 0.382-0.075zM15 8v-3c0-0.54-0.108-1.057-0.303-1.53-0.203-0.49-0.5-0.93-0.868-1.298s-0.809-0.666-1.299-0.869c-0.473-0.195-0.99-0.303-1.53-0.303-0.405 0-0.754 0.241-0.914 0.594l-3.736 8.406h-2.35c-0.405 0-0.793 0.081-1.148 0.228-0.368 0.152-0.698 0.375-0.974 0.651s-0.499 0.606-0.651 0.974c-0.146 0.354-0.227 0.742-0.227 1.147v7c0 0.405 0.081 0.793 0.228 1.148 0.152 0.368 0.375 0.698 0.651 0.974s0.606 0.499 0.974 0.651c0.354 0.146 0.742 0.227 1.147 0.227h14.28c0.369 0.004 0.737-0.063 1.077-0.191 0.351-0.132 0.67-0.328 0.944-0.573 0.256-0.229 0.472-0.502 0.638-0.807 0.162-0.298 0.275-0.627 0.33-0.976l1.38-9.002c0.061-0.401 0.039-0.797-0.053-1.17-0.095-0.387-0.266-0.746-0.498-1.060-0.231-0.314-0.524-0.584-0.865-0.79-0.329-0.199-0.7-0.336-1.1-0.397-0.165-0.025-0.333-0.037-0.492-0.034zM13 9c0 0.552 0.448 1 1 1h5.679c0.038-0.001 0.093 0.002 0.153 0.011 0.136 0.021 0.259 0.067 0.367 0.132 0.113 0.068 0.211 0.158 0.289 0.264s0.135 0.226 0.166 0.354c0.030 0.122 0.038 0.253 0.017 0.388l-1.38 8.998c-0.018 0.119-0.057 0.229-0.111 0.329-0.056 0.103-0.129 0.194-0.214 0.271-0.092 0.082-0.198 0.147-0.314 0.19-0.111 0.042-0.232 0.064-0.373 0.063h-10.279v-9.788l3.608-8.118c0.053 0.017 0.105 0.036 0.156 0.057 0.244 0.101 0.464 0.25 0.65 0.435s0.334 0.406 0.435 0.65c0.097 0.234 0.151 0.491 0.151 0.764z"></path>
</symbol>
<symbol id="icon-thumbs-down" viewBox="0 0 24 24">
<path d="M18 12v-9h1.67c0.188-0.003 0.349 0.026 0.496 0.081 0.153 0.057 0.294 0.143 0.415 0.251 0.115 0.103 0.212 0.226 0.285 0.364 0.062 0.117 0.108 0.246 0.133 0.382v6.845c-0.026 0.147-0.076 0.282-0.144 0.403-0.080 0.143-0.185 0.269-0.311 0.372-0.119 0.098-0.256 0.175-0.403 0.227-0.143 0.050-0.297 0.076-0.458 0.074zM9 16v3c0 0.54 0.108 1.057 0.303 1.53 0.203 0.49 0.5 0.93 0.868 1.298s0.808 0.665 1.298 0.868c0.474 0.196 0.991 0.304 1.531 0.304 0.405 0 0.754-0.241 0.914-0.594l3.736-8.406h2.006c0.399 0.006 0.786-0.060 1.148-0.186 0.371-0.13 0.713-0.324 1.012-0.57 0.316-0.26 0.585-0.579 0.788-0.943 0.196-0.353 0.331-0.746 0.388-1.166 0.005-0.041 0.008-0.088 0.008-0.135v-7c0-0.042-0.003-0.089-0.009-0.137-0.055-0.395-0.178-0.768-0.358-1.106-0.185-0.347-0.428-0.656-0.717-0.914-0.305-0.273-0.661-0.49-1.052-0.636-0.378-0.141-0.788-0.214-1.194-0.207h-13.95c-0.369-0.004-0.737 0.063-1.077 0.191-0.351 0.132-0.67 0.328-0.944 0.573-0.255 0.228-0.472 0.501-0.638 0.806-0.162 0.298-0.275 0.628-0.329 0.976l-1.38 9.002c-0.061 0.401-0.039 0.797 0.053 1.17 0.095 0.387 0.266 0.746 0.498 1.060s0.524 0.584 0.865 0.79c0.329 0.199 0.7 0.337 1.1 0.397 0.164 0.026 0.332 0.038 0.491 0.035zM11 15c0-0.552-0.448-1-1-1h-5.679c-0.038 0.001-0.093-0.002-0.153-0.011-0.136-0.021-0.259-0.067-0.367-0.132-0.113-0.068-0.211-0.158-0.289-0.264s-0.135-0.226-0.166-0.354c-0.030-0.122-0.038-0.253-0.017-0.388l1.38-8.998c0.018-0.119 0.057-0.229 0.111-0.329 0.056-0.103 0.129-0.194 0.214-0.271 0.092-0.082 0.198-0.147 0.314-0.19 0.11-0.042 0.231-0.065 0.372-0.063h10.28v9.788l-3.608 8.118c-0.053-0.017-0.105-0.036-0.156-0.057-0.244-0.101-0.464-0.25-0.65-0.435-0.185-0.185-0.334-0.406-0.435-0.65-0.097-0.234-0.151-0.491-0.151-0.764z"></path>
</symbol>
<symbol id="icon-google" viewBox="0 0 32 32">
<title>google</title>
<path fill="#4285f4" style="fill: var(--color3, #4285f4)" d="M16.32 13.713v5.487h9.075c-0.367 2.353-2.741 6.899-9.075 6.899-5.46 0-9.919-4.519-9.919-10.099s4.46-10.099 9.919-10.099c3.107 0 5.188 1.319 6.38 2.465l4.339-4.184c-2.787-2.601-6.4-4.183-10.719-4.183-8.847 0-16 7.153-16 16s7.153 16 16 16c9.235 0 15.36-6.492 15.36-15.635 0-1.051-0.113-1.853-0.252-2.652h-15.108z"></path>
</symbol>
<symbol id="icon-foursquare" viewBox="0 0 32 32">
<title>foursquare</title>
<path fill="#f94877" style="fill: var(--color1, #f94877)" d="M23.636 4.62l-0.713 3.732c-0.085 0.404-0.593 0.831-1.068 0.831h-6.641c-0.749 0-1.284 0.521-1.284 1.26v0.819c0 0.759 0.54 1.28 1.288 1.28h5.64c0.527 0 1.047 0.581 0.929 1.14l-0.713 3.68c-0.068 0.32-0.419 0.84-1.047 0.84h-4.609c-0.84 0-1.091 0.121-1.652 0.801-0.56 0.699-5.608 6.759-5.608 6.759-0.049 0.060-0.099 0.039-0.099-0.020v-21.181c0-0.479 0.415-1.040 1.035-1.040h13.699c0.5 0 0.973 0.475 0.844 1.095v0.005zM24.237 19.26c0.193-0.771 2.328-11.712 3.041-15.18zM24.648 0h-17.071c-2.353 0-3.044 1.771-3.044 2.885v27.12c0 1.253 0.672 1.721 1.052 1.873 0.379 0.156 1.425 0.285 2.055-0.437 0 0 8.059-9.352 8.195-9.489 0.22-0.209 0.22-0.209 0.42-0.209h5.219c2.2 0 2.541-1.56 2.781-2.48 0.2-0.759 2.339-11.699 3.039-15.18 0.54-2.643-0.14-4.083-2.64-4.083h-0.005z"></path>
</symbol>
<symbol id="icon-tripadvisor" viewBox="0 0 32 32">
<title>tripadvisor</title>
<path fill="#00af87" style="fill: var(--color2, #00af87)" d="M30.681 12.709c0.375-1.609 1.567-3.221 1.567-3.221h-5.349c-3.001-1.94-6.641-2.968-10.684-2.968-4.187 0-7.971 1.040-10.952 3.001h-5.015s1.18 1.581 1.56 3.181c-0.976 1.343-1.556 2.963-1.556 4.743 0 4.421 3.596 8.011 8.016 8.011 2.521 0 4.761-1.18 6.241-3.005l1.7 2.555 1.721-2.581c0.76 0.981 1.76 1.781 2.94 2.32 1.94 0.88 4.123 0.981 6.123 0.24 4.141-1.539 6.261-6.161 4.741-10.301-0.279-0.741-0.64-1.401-1.080-1.98l0.027 0.007zM26.453 23.472c-1.6 0.593-3.34 0.527-4.893-0.191-1.099-0.511-2.004-1.309-2.651-2.303-0.268-0.399-0.5-0.831-0.671-1.295-0.195-0.527-0.293-1.071-0.345-1.62-0.099-1.109 0.060-2.231 0.54-3.271 0.72-1.552 2.001-2.735 3.601-3.328 3.32-1.219 7 0.481 8.221 3.788 1.221 3.308-0.48 6.993-3.78 8.217h-0.023zM13.563 21.027c-1.151 1.695-3.096 2.817-5.297 2.817-3.528 0-6.401-2.875-6.401-6.396s2.875-6.403 6.401-6.403 6.397 2.881 6.397 6.403c0 0.219-0.040 0.419-0.064 0.639-0.108 1.081-0.455 2.101-1.036 2.961v-0.021zM4.2 17.364c0 2.188 1.781 3.961 3.961 3.961s3.957-1.773 3.957-3.961c0-2.18-1.777-3.952-3.955-3.952-2.181 0-3.961 1.772-3.961 3.952h-0.003zM20.264 17.364c0 2.188 1.772 3.961 3.957 3.961 2.181 0 3.953-1.773 3.953-3.961 0-2.18-1.772-3.952-3.953-3.952-2.18 0-3.961 1.772-3.961 3.952h0.004zM5.568 17.364c0-1.428 1.159-2.591 2.581-2.591 1.419 0 2.599 1.164 2.599 2.591 0 1.435-1.159 2.601-2.599 2.601-1.441 0-2.601-1.167-2.601-2.601h0.020zM21.612 17.364c0-1.428 1.159-2.591 2.599-2.591 1.421 0 2.583 1.164 2.583 2.591 0 1.435-1.16 2.601-2.603 2.601-1.439 0-2.599-1.167-2.599-2.601h0.020zM16.208 7.92c2.881 0 5.481 0.519 7.763 1.549-0.86 0.024-1.7 0.175-2.541 0.48-2.020 0.74-3.62 2.22-4.5 4.167-0.42 0.88-0.64 1.812-0.721 2.753-0.3-4.101-3.68-7.353-7.841-7.437 2.281-0.979 4.923-1.512 7.783-1.512h0.059z"></path>
</symbol>
<symbol id="icon-arrow-right" viewBox="0 0 32 32">
<title>arrow-right</title>
<path d="M15.057 7.609l7.057 7.057h-15.448c-0.736 0-1.333 0.597-1.333 1.333s0.597 1.333 1.333 1.333h15.448l-7.057 7.057c-0.521 0.521-0.521 1.365 0 1.885s1.365 0.521 1.885 0l9.333-9.333c0.128-0.128 0.224-0.276 0.289-0.433 0.065-0.16 0.1-0.329 0.101-0.499 0.001-0.177-0.032-0.355-0.101-0.52-0.065-0.157-0.161-0.305-0.289-0.433l-9.333-9.333c-0.521-0.521-1.365-0.521-1.885 0s-0.521 1.365 0 1.885z"></path>
</symbol>
</defs>
</svg>
