<?xml version="1.0" encoding="UTF-8"?>
<svg width="82px" height="83px" viewBox="0 0 82 83" version="1.1" xmlns="http://www.w3.org/2000/svg" xmlns:xlink="http://www.w3.org/1999/xlink">
    <!-- Generator: Sketch 53.2 (72643) - https://sketchapp.com -->
    <title>search</title>
    <desc>Created with Sketch.</desc>
    <g id="Page-1" stroke="none" stroke-width="1" fill="none" fill-rule="evenodd">
        <path d="M80.8787134,71.1992207 C81.6261083,71.9466155 81.9998045,72.8541638 81.9998045,73.9218704 C81.9998045,74.989577 81.6261083,75.8971253 80.8787134,76.6445202 L76.3943491,81.1288845 C75.6469542,81.8762794 74.739406,82.2499756 73.6716994,82.2499756 C72.6039928,82.2499756 71.6964445,81.8762794 70.9490496,81.1288845 L54.9334628,65.1132977 C54.1860679,64.3659028 53.8123717,63.4583545 53.8123717,62.3906479 L53.8123717,59.828154 C47.8332201,64.5260587 40.9999022,66.8750122 33.3124206,66.8750122 C27.2264976,66.8750122 21.6477357,65.3802249 16.5761324,62.3906479 C11.504529,59.4010709 7.47394133,55.3704832 4.48436431,50.2988799 C1.49478729,45.2272766 0,39.6485146 0,33.5625916 C0,27.4766687 1.49478729,21.8979067 4.48436431,16.8263034 C7.47394133,11.7547001 11.504529,7.72411239 16.5761324,4.73453537 C21.6477357,1.74495835 27.2264976,0.250171065 33.3124206,0.250171065 C39.3983436,0.250171065 44.9771055,1.74495835 50.0487088,4.73453537 C55.1203121,7.72411239 59.1508998,11.7547001 62.1404768,16.8263034 C65.1300539,21.8979067 66.6248412,27.4766687 66.6248412,33.5625916 C66.6248412,41.2500733 64.2758876,48.0833912 59.577983,54.0625428 L62.1404768,54.0625428 C63.2081834,54.0625428 64.1157317,54.436239 64.8631266,55.1836338 L80.8787134,71.1992207 Z M33.3124206,54.0625428 C37.04939,54.0625428 40.4927412,53.154992 43.6424741,51.339893 C46.792207,49.524794 49.2746229,47.042378 51.0897219,43.8926451 C52.904821,40.7429122 53.8123717,37.2995611 53.8123717,33.5625916 C53.8123717,29.8256222 52.904821,26.382271 51.0897219,23.2325381 C49.2746229,20.0828053 46.792207,17.6003893 43.6424741,15.7852903 C40.4927412,13.9701913 37.04939,13.0626405 33.3124206,13.0626405 C29.5754511,13.0626405 26.1321,13.9701913 22.9823671,15.7852903 C19.8326342,17.6003893 17.3502182,20.0828053 15.5351192,23.2325381 C13.7200202,26.382271 12.8124695,29.8256222 12.8124695,33.5625916 C12.8124695,37.2995611 13.7200202,40.7429122 15.5351192,43.8926451 C17.3502182,47.042378 19.8326342,49.524794 22.9823671,51.339893 C26.1321,53.154992 29.5754511,54.0625428 33.3124206,54.0625428 Z" id="search" fill="#000000" fill-rule="nonzero"></path>
    </g>
</svg>